<?xml version="1.0" encoding="utf-8"?>
<!-- Generator: Adobe Illustrator 26.0.1, SVG Export Plug-In . SVG Version: 6.00 Build 0)  -->
<svg version="1.1" id="Layer_1" xmlns="http://www.w3.org/2000/svg" xmlns:xlink="http://www.w3.org/1999/xlink" x="0px" y="0px"
	 viewBox="0 0 671.18 175.45" style="enable-background:new 0 0 671.18 175.45;" xml:space="preserve">
<style type="text/css">
	.st0{fill-rule:evenodd;clip-rule:evenodd;fill:#DC0D15;}
	.st1{fill-rule:evenodd;clip-rule:evenodd;fill:#216BB4;}
	.st2{fill:#918A8B;}
	.st3{fill:#216BB4;}
	.st4{fill-rule:evenodd;clip-rule:evenodd;fill:#FFFFFF;}
	.st5{fill:#FFFFFF;}
	.st6{fill:#72C8E2;}
	.st7{fill:#5CC5EC;}
	.st8{fill:#FFCF02;}
	.st9{fill:#FFD501;}
	.st10{fill:#FEC705;}
	.st11{fill:#FFDD09;}
	.st12{fill:#FFD902;}
	.st13{fill:#78BE7F;}
	.st14{fill:#7BC085;}
	.st15{fill:#D2577F;}
	.st16{fill:#EA4F69;}
	.st17{fill:#EA516A;}
	.st18{fill:#EA4E67;}
	.st19{fill:#EB596C;}
	.st20{fill:#65C6E8;}
	.st21{fill:#E94964;}
	.st22{fill:#EA5069;}
	.st23{fill:#EA556D;}
	.st24{fill:#EB566E;}
	.st25{fill:#AAD3A7;}
	.st26{fill:#6DC7E3;}
	.st27{fill:#69C7E5;}
	.st28{fill:#54C3EE;}
	.st29{fill:#61C6EA;}
	.st30{fill:#D74977;}
	.st31{fill:#FDC308;}
	.st32{fill:#E84131;}
	.st33{fill:#6DBA72;}
	.st34{fill:#F9B215;}
	.st35{fill:#E72C4C;}
	.st36{fill:#E72F54;}
	.st37{fill:#E2385F;}
	.st38{fill:#E72C4A;}
	.st39{fill:#FBBB0D;}
	.st40{fill:#E72D45;}
</style>
<g>
	<g>
		<path class="st0" d="M128.89,19.68c35.75,5.37,60.41,38.67,55.08,74.45c-1.43,9.41-4.77,18.08-9.58,25.61l-20.66-0.94
			c6.62-7.35,11.25-16.79,12.82-27.28c3.83-25.57-14.11-50.52-40.27-54.42c-18.08-2.72-35.33,5.09-45.54,18.78
			c-3.73-7.49-4.11-16.34-0.35-24.18C93.84,21.8,111.05,16.99,128.89,19.68L128.89,19.68z"/>
		<path class="st1" d="M90.22,150.92c32.78,14.11,70.27,0.49,83.34-29.16l-39.06-0.45l7.94,7.91
			c-42.12,27.38-101.1-13.06-81.45-70.93C41.34,91.9,54.82,135.62,90.22,150.92L90.22,150.92z"/>
		<path class="st1" d="M103.91,118.83c26.79,4.29,51.63-13.13,55.39-37.87l-28.71,7.18l7.35,4.39c-8.88,9.96-22.96,15.33-37.7,13
			c-22.4-3.62-37.8-23.76-34.39-45.01c0.87-5.33,2.79-10.17,5.57-14.46c-4.18,5.61-7.11,12.19-8.26,19.48
			C59.14,90.71,77.12,114.51,103.91,118.83L103.91,118.83z"/>
		<path class="st1" d="M92.13,80.78c17.42,8.71,38.22,2.13,46.09-13.97l-21.18-1.29l4.08,4.6c-8.22,4.91-19.02,5.57-28.6,0.77
			C77.96,63.61,71.75,46.5,78.65,32.67c1.74-3.45,4.11-6.38,6.93-8.67c-4.08,2.93-7.49,6.79-9.86,11.57
			C67.54,51.9,74.72,72.07,92.13,80.78L92.13,80.78z"/>
	</g>
	<g>
		<path class="st2" d="M223.58,117.87v-67.6h48.63v12.55h-34.14V77.5h27.92v12.55h-27.92v15.27h34.63v12.55H223.58z"/>
		<path class="st3" d="M283.3,117.87v-67.6h28.6c7.39,0,13.41,1.98,18.04,5.93c4.64,3.96,6.95,9.34,6.95,16.15
			c0,6.81-2.32,12.19-6.95,16.15c-4.64,3.96-10.65,5.94-18.04,5.94h-14.1v23.44H283.3z M297.8,81.97h12.55
			c3.7,0,6.52-0.84,8.46-2.53c1.95-1.68,2.92-4.05,2.92-7.1c0-3.04-0.99-5.4-2.97-7.05c-1.98-1.65-4.85-2.48-8.61-2.48H297.8V81.97z
			"/>
		<path class="st3" d="M346.43,117.87v-67.6h14.49v67.6H346.43z"/>
		<path class="st2" d="M375.02,117.87v-67.6h14.49l30.44,45.42V50.27h14.01v67.6h-14.59l-30.35-45.32v45.32H375.02z"/>
		<path class="st3" d="M481.92,100.36L493,105.9c-4.41,8.76-12.06,13.13-22.95,13.13c-7.72,0-14.02-2.27-18.92-6.81
			c-4.9-4.54-7.34-10.63-7.34-18.28c0-7.39,2.42-13.44,7.25-18.14c4.83-4.7,10.91-7.05,18.24-7.05c7.26,0,12.99,2.24,17.17,6.71
			c4.18,4.47,6.27,10.41,6.27,17.8c0,1.95-0.03,3.21-0.1,3.79h-34.24c0.32,3.44,1.54,6.14,3.65,8.12c2.11,1.98,4.85,2.97,8.22,2.97
			C475.3,108.14,479.19,105.55,481.92,100.36z M468.78,79.16c-2.79,0-5.09,0.87-6.91,2.63c-1.82,1.75-2.95,4.15-3.4,7.2h19.84
			C477.8,82.43,474.62,79.16,468.78,79.16z"/>
		<path class="st3" d="M510.9,117.87l-14.69-47.95h14.49l7.88,31.9l8.07-31.9h14.1l8.27,31.9l7.68-31.9h14.49l-14.68,47.95h-14.49
			l-8.36-31.12l-8.27,31.12H510.9z"/>
		<path class="st3" d="M597.27,119.03c-7,0-12.68-1.49-17.02-4.47c-4.35-2.98-6.55-7.1-6.62-12.35l13.23-1.56
			c0.58,5.71,4.18,8.56,10.8,8.56c4.99,0,7.49-1.65,7.49-4.96c0-1.3-0.4-2.27-1.22-2.92c-0.81-0.65-2.22-1.13-4.23-1.46l-5.45-0.97
			c-2.14-0.39-3.99-0.79-5.54-1.22c-1.56-0.42-3.2-1.04-4.91-1.85s-3.13-1.75-4.23-2.82c-1.11-1.07-2.01-2.45-2.73-4.13
			c-0.71-1.69-1.07-3.6-1.07-5.74c0-4.41,1.93-7.91,5.79-10.5c3.86-2.59,9.16-3.89,15.9-3.89c6.23,0,11.19,1.3,14.88,3.89
			c3.7,2.59,5.9,5.97,6.62,10.12l-12.45,3.01c-1.17-4.8-4.25-7.2-9.24-7.2c-2.34,0-4.17,0.41-5.5,1.22
			c-1.33,0.81-1.99,1.93-1.99,3.36c0,1.36,0.49,2.4,1.46,3.11c0.97,0.71,2.63,1.26,4.96,1.65l5.45,0.87
			c2.53,0.39,4.73,0.87,6.61,1.46c1.88,0.58,3.71,1.43,5.5,2.53c1.78,1.1,3.14,2.58,4.08,4.43c0.94,1.85,1.41,4.07,1.41,6.66
			c0,4.8-2.04,8.53-6.13,11.19C609.04,117.7,603.75,119.03,597.27,119.03z"/>
	</g>
</g>
</svg>
